<?xml version="1.0" encoding="iso-8859-1"?>
<!-- Generator: Adobe Illustrator 21.0.2, SVG Export Plug-In . SVG Version: 6.00 Build 0)  -->
<svg version="1.1" id="Layer_1_1_" xmlns="http://www.w3.org/2000/svg" xmlns:xlink="http://www.w3.org/1999/xlink" x="0px" y="0px"
	 viewBox="0 0 64 64" style="enable-background:new 0 0 64 64;" xml:space="preserve">
<path style="fill:#21BABD;" d="M48,35V7c0-2.209-1.791-4-4-4H7C4.791,3,3,4.791,3,7v38c0,2.209,1.791,4,4,4h28.051
	C35.025,48.669,35,48.338,35,48C35,40.82,40.82,35,48,35z M24.706,26.706l-3.587-3.587C22.844,22.065,24,20.17,24,18h5
	C29,21.548,27.313,24.694,24.706,26.706z"/>
<path style="fill:#FCEADE;" d="M48,35c-7.18,0-13,5.82-13,13c0,0.338,0.025,0.669,0.051,1C35.563,55.711,41.158,61,48,61
	c7.18,0,13-5.82,13-13S55.18,35,48,35z M48,54c-2.209,0-4-1.791-4-4h8C52,52.209,50.209,54,48,54z"/>
<path style="fill:#21BABD;" d="M48,54c2.209,0,4-1.791,4-4h-8C44,52.209,45.791,54,48,54z"/>
<path style="fill:#FF8A5B;" d="M21.119,23.119l3.587,3.587C27.313,24.694,29,21.548,29,18h-5C24,20.17,22.844,22.065,21.119,23.119z
	"/>
<g>
</g>
<path style="fill:#2B2D42;" d="M49,34.051V7c0-2.757-2.243-5-5-5H7C4.243,2,2,4.243,2,7v38c0,2.757,2.243,5,5,5h27.16
	c0.976,6.773,6.801,12,13.84,12c7.72,0,14-6.28,14-14C62,40.618,56.253,34.567,49,34.051z M7,48c-1.654,0-3-1.346-3-3V7
	c0-1.654,1.346-3,3-3h37c1.654,0,3,1.346,3,3v27.035c-0.076,0.005-0.149,0.02-0.224,0.027c-0.212,0.018-0.42,0.047-0.629,0.075
	c-0.247,0.033-0.494,0.067-0.737,0.113c-0.207,0.039-0.411,0.086-0.614,0.134c-0.238,0.056-0.474,0.114-0.706,0.182
	c-0.201,0.058-0.397,0.124-0.594,0.191c-0.228,0.078-0.453,0.159-0.675,0.247c-0.193,0.077-0.383,0.159-0.571,0.245
	c-0.216,0.098-0.429,0.2-0.639,0.308c-0.184,0.095-0.366,0.194-0.545,0.296c-0.204,0.117-0.404,0.239-0.601,0.365
	c-0.174,0.112-0.346,0.226-0.514,0.345c-0.191,0.135-0.376,0.275-0.56,0.419c-0.163,0.128-0.324,0.256-0.481,0.39
	c-0.177,0.151-0.347,0.309-0.516,0.469c-0.15,0.142-0.299,0.283-0.442,0.432c-0.162,0.168-0.317,0.342-0.471,0.518
	c-0.135,0.154-0.271,0.308-0.399,0.468c-0.147,0.184-0.285,0.375-0.423,0.566c-0.119,0.165-0.24,0.328-0.353,0.499
	c-0.131,0.199-0.251,0.406-0.372,0.612c-0.102,0.174-0.208,0.346-0.303,0.525c-0.114,0.215-0.215,0.438-0.318,0.659
	c-0.084,0.181-0.173,0.359-0.25,0.544c-0.096,0.233-0.177,0.474-0.261,0.713c-0.064,0.183-0.135,0.362-0.192,0.548
	c-0.078,0.255-0.137,0.518-0.201,0.779c-0.043,0.179-0.095,0.354-0.132,0.536c-0.059,0.294-0.097,0.595-0.137,0.895
	c-0.021,0.156-0.052,0.308-0.068,0.465C34.025,47.061,34,47.528,34,48H7z M48,60c-6.303,0-11.475-4.887-11.953-11.07
	c0-0.002,0.001-0.004,0.001-0.006C36.024,48.618,36,48.312,36,48c0-6.617,5.383-12,12-12s12,5.383,12,12S54.617,60,48,60z"/>
<path style="fill:#2B2D42;" d="M44,45v1h2v-1c0-1.654-1.346-3-3-3s-3,1.346-3,3v1h2v-1c0-0.552,0.448-1,1-1S44,44.448,44,45z"/>
<path style="fill:#2B2D42;" d="M53,42c-1.654,0-3,1.346-3,3v1h2v-1c0-0.552,0.448-1,1-1s1,0.448,1,1v1h2v-1
	C56,43.346,54.654,42,53,42z"/>
<path style="fill:#2B2D42;" d="M52,49h-8c-0.553,0-1,0.447-1,1c0,2.757,2.243,5,5,5s5-2.243,5-5C53,49.447,52.553,49,52,49z M48,53
	c-1.304,0-2.416-0.836-2.829-2h5.658C50.416,52.164,49.304,53,48,53z"/>
<path style="fill:#2B2D42;" d="M18,6C11.383,6,6,11.383,6,18s5.383,12,12,12s12-5.383,12-12S24.617,6,18,6z M27.949,17H24.92
	c-0.25-1.734-1.132-3.265-2.411-4.346l1.802-2.402C26.317,11.889,27.678,14.285,27.949,17z M18,23c-2.757,0-5-2.243-5-5s2.243-5,5-5
	s5,2.243,5,5S20.757,23,18,23z M22.639,9.149l-1.832,2.443C19.946,11.214,18.998,11,18,11c-1.312,0-2.536,0.369-3.586,1
	l-2.166-2.166C13.877,8.683,15.859,8,18,8C19.674,8,21.251,8.419,22.639,9.149z M8,18c0-2.652,1.045-5.059,2.735-6.851l2.12,2.12
	C11.708,14.517,11,16.175,11,18c0,3.859,3.141,7,7,7c1.048,0,2.039-0.238,2.933-0.653l2.212,2.212C21.639,27.467,19.883,28,18,28
	C12.486,28,8,23.514,8,18z M24.761,25.347l-2.12-2.12c1.207-1.073,2.039-2.554,2.28-4.226h3.029
	C27.699,21.504,26.516,23.73,24.761,25.347z"/>
<polygon style="fill:#2B2D42;" points="40,30 42,30 42,15 43,15 43,13 42,13 42,8 40,8 40,13 39,13 39,15 40,15 "/>
<polygon style="fill:#2B2D42;" points="34,30 36,30 36,19 37,19 37,17 36,17 36,8 34,8 34,17 33,17 33,19 34,19 "/>
<path style="fill:#2B2D42;" d="M16,32H8c-0.553,0-1,0.447-1,1v4c0,0.553,0.447,1,1,1h8c0.553,0,1-0.447,1-1v-4
	C17,32.447,16.553,32,16,32z M15,36H9v-2h6V36z"/>
<path style="fill:#2B2D42;" d="M28,32h-8c-0.553,0-1,0.447-1,1v4c0,0.553,0.447,1,1,1h8c0.553,0,1-0.447,1-1v-4
	C29,32.447,28.553,32,28,32z M27,36h-6v-2h6V36z"/>
<path style="fill:#2B2D42;" d="M16,40H8c-0.553,0-1,0.447-1,1v4c0,0.553,0.447,1,1,1h8c0.553,0,1-0.447,1-1v-4
	C17,40.447,16.553,40,16,40z M15,44H9v-2h6V44z"/>
<path style="fill:#2B2D42;" d="M28,40h-8c-0.553,0-1,0.447-1,1v4c0,0.553,0.447,1,1,1h8c0.553,0,1-0.447,1-1v-4
	C29,40.447,28.553,40,28,40z M27,44h-6v-2h6V44z"/>
</svg>
